<?xml version="1.0" encoding="UTF-8"?>
<svg version="1.1" xmlns="http://www.w3.org/2000/svg" width="512" height="512">
<path d="M0 0 C165.66 0 331.32 0 502 0 C502 111.54 502 223.08 502 338 C336.34 338 170.68 338 0 338 C0 226.46 0 114.92 0 0 Z " fill="#F8B611" transform="translate(5,87)"/>
<path d="M0 0 C95.04 0 190.08 0 288 0 C288 89.76 288 179.52 288 272 C192.96 272 97.92 272 0 272 C0 182.24 0 92.48 0 0 Z " fill="#871724" transform="translate(186,120)"/>
<path d="M0 0 C19.8 0 39.6 0 60 0 C60 89.76 60 179.52 60 272 C40.2 272 20.4 272 0 272 C0 182.24 0 92.48 0 0 Z " fill="#02563F" transform="translate(38,120)"/>
<path d="M0 0 C4.69527647 3.23152121 9.2504705 6.64185339 13.73950195 10.15405273 C17.12813606 12.78231041 20.11134346 14.9239459 24.2578125 16.2421875 C24.226875 15.035625 24.226875 15.035625 24.1953125 13.8046875 C24.2578125 11.2421875 24.2578125 11.2421875 25.2578125 10.2421875 C27.6953125 10.0546875 27.6953125 10.0546875 30.2578125 10.2421875 C31.2478125 11.2321875 31.2478125 11.2321875 32.2578125 12.2421875 C31.79627404 18.70372596 31.79627404 18.70372596 29.2578125 21.2421875 C24.14174646 22.14987664 21.64547569 22.09937691 17.171875 19.3359375 C15.10356201 17.76299824 13.06259501 16.15325885 11.0546875 14.50390625 C8.54598914 12.4752242 6.06257593 10.82370557 3.2578125 9.2421875 C4.2478125 13.2021875 4.2478125 13.2021875 5.2578125 17.2421875 C3.98572628 16.61974151 2.71519368 15.99411983 1.4453125 15.3671875 C0.73761719 15.01914063 0.02992188 14.67109375 -0.69921875 14.3125 C-2.7421875 13.2421875 -2.7421875 13.2421875 -5.7421875 11.2421875 C-6.3403125 12.0671875 -6.9384375 12.8921875 -7.5546875 13.7421875 C-8.2765625 14.5671875 -8.9984375 15.3921875 -9.7421875 16.2421875 C-10.7321875 16.2421875 -11.7221875 16.2421875 -12.7421875 16.2421875 C-12.63519531 15.56671875 -12.52820313 14.89125 -12.41796875 14.1953125 C-12.29808594 13.30328125 -12.17820312 12.41125 -12.0546875 11.4921875 C-11.92707031 10.61046875 -11.79945313 9.72875 -11.66796875 8.8203125 C-11.75930302 5.64764831 -12.56667677 4.49979297 -14.7421875 2.2421875 C-16.83634554 1.44594928 -16.83634554 1.44594928 -18.7421875 1.2421875 C-18.5153125 2.4590625 -18.2884375 3.6759375 -18.0546875 4.9296875 C-17.69266203 7.93769321 -17.72450828 9.19434962 -18.8046875 12.1171875 C-21.21810033 14.76415641 -23.30372231 15.40167379 -26.7421875 16.2421875 C-26.56429687 15.24638672 -26.56429687 15.24638672 -26.3828125 14.23046875 C-25.49785463 8.55231151 -25.49785463 8.55231151 -27.3046875 3.2421875 C-30.03299662 1.00357489 -32.33611384 0.09370592 -35.7421875 -0.7578125 C-35.7421875 1.5521875 -35.7421875 3.8621875 -35.7421875 6.2421875 C-36.2784375 5.8915625 -36.8146875 5.5409375 -37.3671875 5.1796875 C-40.52608995 3.93275232 -42.49537721 4.39519351 -45.7421875 5.2421875 C-48.13004026 7.18452839 -48.13004026 7.18452839 -47.9296875 10.7421875 C-47.98349987 14.09183453 -47.98349987 14.09183453 -46.7421875 16.2421875 C-44.17887539 15.78445319 -42.86525378 15.34884494 -40.8671875 13.6171875 C-38.7421875 12.2421875 -38.7421875 12.2421875 -35.4921875 12.5546875 C-34.5846875 12.7815625 -33.6771875 13.0084375 -32.7421875 13.2421875 C-33.4021875 13.7371875 -34.0621875 14.2321875 -34.7421875 14.7421875 C-37.6249092 18.34558962 -37.04419747 20.71203792 -36.7421875 25.2421875 C-35.9790625 24.5821875 -35.2159375 23.9221875 -34.4296875 23.2421875 C-31.7421875 21.2421875 -31.7421875 21.2421875 -28.7421875 21.2421875 C-28.2471875 23.7171875 -28.2471875 23.7171875 -27.7421875 26.2421875 C-20.66248414 28.3916878 -12.57205415 27.49695852 -5.3046875 26.7421875 C14.66567415 24.75392309 14.66567415 24.75392309 21.2578125 29.2421875 C24.14617623 32.32600441 26.06969275 35.28838235 26.48046875 39.5546875 C26.11814097 44.78634712 24.5729981 48.22378071 21.2578125 52.2421875 C20.2678125 52.7371875 20.2678125 52.7371875 19.2578125 53.2421875 C19.89214433 56.19579507 20.85733075 58.63244474 22.2578125 61.3046875 C27.60827001 71.55317413 25.68180238 82.39951169 22.34765625 93.06640625 C21.70007123 94.95345506 21.03285259 96.83423681 20.32421875 98.69921875 C17.58992432 105.96014416 16.96671948 113.36890844 19.4453125 120.8046875 C21.44617298 123.49549987 23.2592351 124.78342012 26.2578125 126.2421875 C25.08809383 129.28345604 23.51043108 130.98630293 21.1328125 133.1171875 C18.88418355 135.31621434 18.31060064 135.99408326 17.6328125 139.1796875 C18.44692811 143.16885397 20.12540064 145.77701822 22.2578125 149.2421875 C22.2578125 149.9021875 22.2578125 150.5621875 22.2578125 151.2421875 C21.67773438 151.15839844 21.09765625 151.07460938 20.5 150.98828125 C15.78290728 150.37334672 11.96528535 150.3663786 7.2578125 151.2421875 C5.91448522 150.95173836 4.57555446 150.63262956 3.2578125 150.2421875 C2.9278125 150.5721875 2.5978125 150.9021875 2.2578125 151.2421875 C0.59175422 151.2872161 -1.07597134 151.28093671 -2.7421875 151.2421875 C-5.38810285 151.2421875 -8.03410541 151.26269413 -10.6796875 151.3046875 C-13.83165355 151.31644857 -16.65443455 150.8971654 -19.7421875 150.2421875 C-20.0721875 150.5721875 -20.4021875 150.9021875 -20.7421875 151.2421875 C-25.27707122 151.47474564 -25.27707122 151.47474564 -27.7421875 150.2421875 C-28.6909375 150.4071875 -29.6396875 150.5721875 -30.6171875 150.7421875 C-33.62504954 151.22344543 -34.91124953 150.99710429 -37.7421875 150.2421875 C-39.92922135 150.62126032 -39.92922135 150.62126032 -41.7421875 151.2421875 C-41.17286422 147.9401125 -40.39712876 146.31089969 -37.7421875 144.2421875 C-34.859375 143.546875 -34.859375 143.546875 -31.6171875 143.1171875 C-27.86296687 142.90122417 -27.86296687 142.90122417 -24.7421875 141.2421875 C-24.58762182 138.66510194 -24.51045907 136.13326229 -24.4921875 133.5546875 C-24.4715625 132.84634766 -24.4509375 132.13800781 -24.4296875 131.40820312 C-24.37739428 124.32900834 -27.13712992 119.85893897 -31.3046875 114.2421875 C-34.87886862 109.22023681 -36.7421875 105.49504883 -36.7421875 99.2421875 C-49.54751372 97.57995765 -62.04488376 104.71123408 -73.265625 110.140625 C-75.7421875 111.2421875 -75.7421875 111.2421875 -77.7421875 111.2421875 C-75.7421875 105.2421875 -75.7421875 105.2421875 -75.01171875 103.19140625 C-73.0605719 97.61528606 -71.77388669 92.05611588 -70.7421875 86.2421875 C-71.4021875 86.2421875 -72.0621875 86.2421875 -72.7421875 86.2421875 C-72.6596875 87.1290625 -72.5771875 88.0159375 -72.4921875 88.9296875 C-72.55157865 98.74902438 -77.14962591 107.31101765 -82.19140625 115.4296875 C-84.34564213 119.33661404 -85.08370435 122.8522998 -85.7421875 127.2421875 C-83.1021875 127.9021875 -80.4621875 128.5621875 -77.7421875 129.2421875 C-79.19320296 132.98931532 -80.85769985 134.05116691 -84.3671875 135.8671875 C-86.84794767 137.2926117 -86.84794767 137.2926117 -88.7421875 139.2421875 C-89.31330984 142.03338689 -89.20933793 144.2505914 -88.86328125 147.0703125 C-88.82332031 147.78703125 -88.78335938 148.50375 -88.7421875 149.2421875 C-90.7421875 151.2421875 -90.7421875 151.2421875 -93.6796875 151.4296875 C-96.7421875 151.2421875 -96.7421875 151.2421875 -99.7421875 150.2421875 C-100.8971875 150.4071875 -102.0521875 150.5721875 -103.2421875 150.7421875 C-106.7421875 151.2421875 -106.7421875 151.2421875 -109.7421875 150.2421875 C-110.7321875 150.4071875 -111.7221875 150.5721875 -112.7421875 150.7421875 C-115.7421875 151.2421875 -115.7421875 151.2421875 -118.7421875 150.2421875 C-120.88474543 150.63151606 -120.88474543 150.63151606 -122.7421875 151.2421875 C-120.81544133 144.57268154 -120.81544133 144.57268154 -117.7421875 142.2421875 C-115.21875 141.80078125 -115.21875 141.80078125 -112.3671875 141.6796875 C-108.401582 141.4994327 -105.32395944 141.02041703 -101.7421875 139.2421875 C-99.03907029 133.83595308 -100.69341285 127.9782571 -102.4831543 122.54736328 C-102.94889853 121.17314844 -103.41521056 119.79912591 -103.88208008 118.42529297 C-105.98192496 112.02555044 -106.5122385 105.98735823 -106.7421875 99.2421875 C-106.7421875 104.1921875 -106.7421875 109.1421875 -106.7421875 114.2421875 C-111.29315182 113.33199464 -112.51606621 112.99215536 -115.8671875 110.3046875 C-118.12959262 108.51324998 -120.33529918 106.84677971 -122.7421875 105.2421875 C-121.4221875 106.5621875 -120.1021875 107.8821875 -118.7421875 109.2421875 C-120.13406469 112.60589071 -121.53650146 114.46125081 -124.7421875 116.2421875 C-128.46679506 116.67095647 -130.22036117 116.57759271 -133.41015625 114.52734375 C-134.24160156 113.79386719 -135.07304687 113.06039062 -135.9296875 112.3046875 C-139.47866189 109.16315673 -139.47866189 109.16315673 -143.7421875 107.2421875 C-143.7421875 107.9021875 -143.7421875 108.5621875 -143.7421875 109.2421875 C-144.4021875 109.2421875 -145.0621875 109.2421875 -145.7421875 109.2421875 C-145.79117188 108.42234375 -145.84015625 107.6025 -145.890625 106.7578125 C-146.00277344 105.14132812 -146.00277344 105.14132812 -146.1171875 103.4921875 C-146.18679687 102.42484375 -146.25640625 101.3575 -146.328125 100.2578125 C-146.55916366 97.32413332 -146.55916366 97.32413332 -147.76953125 95.26171875 C-149.16235774 92.36978584 -148.9695802 89.86747699 -148.9296875 86.6796875 C-148.92001953 84.97619141 -148.92001953 84.97619141 -148.91015625 83.23828125 C-148.7421875 80.2421875 -148.7421875 80.2421875 -147.7421875 77.2421875 C-150.7121875 78.2321875 -150.7121875 78.2321875 -153.7421875 79.2421875 C-154.0721875 78.5821875 -154.4021875 77.9221875 -154.7421875 77.2421875 C-151.67660642 75.70939696 -150.1780506 75.67679231 -146.7421875 76.2421875 C-143.64762753 78.57786355 -141.07065816 81.35127761 -138.4296875 84.1796875 C-137.33817383 85.31180664 -137.33817383 85.31180664 -136.22460938 86.46679688 C-134.38369415 88.37977029 -132.5603333 90.30762783 -130.7421875 92.2421875 C-130.2471875 92.7371875 -130.2471875 92.7371875 -129.7421875 93.2421875 C-129.90074219 92.66597656 -130.05929687 92.08976562 -130.22265625 91.49609375 C-132.04752871 83.57916586 -130.35059215 76.41654498 -126.7421875 69.2421875 C-122.42886863 63.04979902 -116.51640191 57.29339098 -109.8671875 53.6796875 C-107.47834169 52.38929198 -107.47834169 52.38929198 -106.9296875 49.5546875 C-106.836875 48.41 -106.836875 48.41 -106.7421875 47.2421875 C-107.6084375 47.4896875 -107.6084375 47.4896875 -108.4921875 47.7421875 C-110.7421875 48.2421875 -110.7421875 48.2421875 -114.7421875 48.2421875 C-115.2371875 46.2621875 -115.2371875 46.2621875 -115.7421875 44.2421875 C-116.4021875 44.2421875 -117.0621875 44.2421875 -117.7421875 44.2421875 C-118.0721875 45.2321875 -118.4021875 46.2221875 -118.7421875 47.2421875 C-119.7321875 46.7471875 -119.7321875 46.7471875 -120.7421875 46.2421875 C-120.7421875 45.5821875 -120.7421875 44.9221875 -120.7421875 44.2421875 C-124.2071875 44.7371875 -124.2071875 44.7371875 -127.7421875 45.2421875 C-127.7421875 44.5821875 -127.7421875 43.9221875 -127.7421875 43.2421875 C-130.3821875 43.2421875 -133.0221875 43.2421875 -135.7421875 43.2421875 C-135.2442038 39.50730973 -134.86726994 37.42981115 -132.7421875 34.2421875 C-126.65985044 34.91800273 -120.72904598 35.97856778 -114.7421875 37.2421875 C-115.0721875 38.2321875 -115.4021875 39.2221875 -115.7421875 40.2421875 C-112.1121875 40.5721875 -108.4821875 40.9021875 -104.7421875 41.2421875 C-106.20781556 35.05398012 -109.82678344 30.14567702 -113.7421875 25.2421875 C-114.7321875 24.7471875 -114.7321875 24.7471875 -115.7421875 24.2421875 C-115.7421875 25.2321875 -115.7421875 26.2221875 -115.7421875 27.2421875 C-117.7421875 26.2421875 -119.7421875 25.2421875 -121.7421875 24.2421875 C-122.0721875 25.2321875 -122.4021875 26.2221875 -122.7421875 27.2421875 C-135.2940672 15.05948073 -135.2940672 15.05948073 -135.9921875 7.5546875 C-135.7421875 5.2421875 -135.7421875 5.2421875 -133.7421875 3.2421875 C-130.7421875 2.9921875 -130.7421875 2.9921875 -127.7421875 3.2421875 C-125.7421875 5.2421875 -125.7421875 5.2421875 -125.7421875 9.2421875 C-119.1421875 7.9221875 -112.5421875 6.6021875 -105.7421875 5.2421875 C-105.0821875 2.9321875 -104.4221875 0.6221875 -103.7421875 -1.7578125 C-95.51361607 -2.23253777 -95.51361607 -2.23253777 -92.3046875 -0.2578125 C-91.7890625 0.2371875 -91.2734375 0.7321875 -90.7421875 1.2421875 C-90.0821875 1.2421875 -89.4221875 1.2421875 -88.7421875 1.2421875 C-88.4121875 -0.4078125 -88.0821875 -2.0578125 -87.7421875 -3.7578125 C-83.45952557 -3.27114637 -81.06046902 -2.48354375 -77.7421875 0.2421875 C-77.0821875 0.2421875 -76.4221875 0.2421875 -75.7421875 0.2421875 C-75.0821875 -1.0778125 -74.4221875 -2.3978125 -73.7421875 -3.7578125 C-68.09721709 -2.12704327 -68.09721709 -2.12704327 -66.1796875 -0.1328125 C-64.77505801 1.48313524 -64.77505801 1.48313524 -62.3046875 1.5546875 C-59.6819173 1.23483748 -58.00009806 0.58020858 -55.7421875 -0.7578125 C-56.96745779 3.29500462 -58.44099244 6.68579514 -60.7421875 10.2421875 C-59.7521875 11.7271875 -59.7521875 11.7271875 -58.7421875 13.2421875 C-58.48458471 15.93671271 -58.65318697 18.52767125 -58.7421875 21.2421875 C-60.3921875 20.2521875 -62.0421875 19.2621875 -63.7421875 18.2421875 C-63.7421875 18.9021875 -63.7421875 19.5621875 -63.7421875 20.2421875 C-63.1028125 20.5515625 -62.4634375 20.8609375 -61.8046875 21.1796875 C-59.7421875 22.2421875 -59.7421875 22.2421875 -58.7421875 23.2421875 C-58.66992248 25.09506252 -58.6583753 26.95052628 -58.6796875 28.8046875 C-58.68871094 29.81660156 -58.69773437 30.82851562 -58.70703125 31.87109375 C-58.71863281 32.65355469 -58.73023438 33.43601563 -58.7421875 34.2421875 C-64.39060868 30.35105291 -66.10277223 26.8429911 -67.7421875 20.2421875 C-68.4021875 20.2421875 -69.0621875 20.2421875 -69.7421875 20.2421875 C-69.7421875 22.5521875 -69.7421875 24.8621875 -69.7421875 27.2421875 C-71.7221875 26.7471875 -71.7221875 26.7471875 -73.7421875 26.2421875 C-72.0921875 27.2321875 -70.4421875 28.2221875 -68.7421875 29.2421875 C-68.0821875 27.9221875 -67.4221875 26.6021875 -66.7421875 25.2421875 C-66.3090625 26.1703125 -65.8759375 27.0984375 -65.4296875 28.0546875 C-64.0227963 31.14182995 -64.0227963 31.14182995 -62.2109375 32.6484375 C-60.34615819 34.67192143 -60.06023708 36.24638587 -59.5546875 38.9296875 C-59.39613281 39.73792969 -59.23757813 40.54617187 -59.07421875 41.37890625 C-58.90986328 42.30123047 -58.90986328 42.30123047 -58.7421875 43.2421875 C-59.7321875 43.2421875 -60.7221875 43.2421875 -61.7421875 43.2421875 C-60.7521875 47.2021875 -60.7521875 47.2021875 -59.7421875 51.2421875 C-64.09741603 50.73576558 -67.18458385 49.85807253 -70.7421875 47.2421875 C-70.7421875 46.5821875 -70.7421875 45.9221875 -70.7421875 45.2421875 C-71.4021875 45.2421875 -72.0621875 45.2421875 -72.7421875 45.2421875 C-72.4121875 46.2321875 -72.0821875 47.2221875 -71.7421875 48.2421875 C-69.60891914 49.28191934 -69.60891914 49.28191934 -66.7421875 50.2421875 C-64.39729044 51.29111382 -62.06374912 52.36301458 -59.73046875 53.4375 C-54.93192842 55.37954186 -48.51608035 54.03452993 -43.42089844 53.86987305 C-42.05539068 53.82653132 -40.68982899 53.78485566 -39.32421875 53.74487305 C-37.35143653 53.68692018 -35.37883758 53.62283132 -33.40625 53.55859375 C-32.22498535 53.52193604 -31.0437207 53.48527832 -29.82666016 53.44750977 C-26.8955205 53.34564149 -26.8955205 53.34564149 -24.72460938 52.73120117 C-21.92203357 52.03987613 -19.24289917 52.11389404 -16.359375 52.1015625 C-15.10898437 52.08222656 -13.85859375 52.06289062 -12.5703125 52.04296875 C-9.95848521 52.00941761 -7.34641646 51.99090906 -4.734375 51.98828125 C3.20942956 51.83363751 9.70481802 51.03521523 16.2578125 46.2421875 C18.58530595 42.75094733 18.76080566 41.34996499 18.2578125 37.2421875 C15.87279884 34.0905623 14.07301914 32.94321487 10.2578125 32.2421875 C4.57418118 31.88383538 -0.93901012 31.91507223 -6.4921875 33.2421875 C-17.32062863 35.64078281 -27.60583522 34.94985047 -37.97265625 31.1171875 C-40.73916629 30.24314202 -42.86347229 30.07378003 -45.7421875 30.2421875 C-46.4021875 31.8921875 -47.0621875 33.5421875 -47.7421875 35.2421875 C-49.24609375 34.07421875 -49.24609375 34.07421875 -50.7421875 32.2421875 C-50.89453125 29.75390625 -50.89453125 29.75390625 -50.6796875 26.9296875 C-50.50593897 21.61993229 -51.75307352 19.63244865 -54.7421875 15.2421875 C-55.73272711 10.78853995 -55.73011197 6.98523249 -53.44921875 2.9609375 C-40.29041912 -13.17891743 -16.05083265 -9.97291736 0 0 Z " fill="#F6B304" transform="translate(399.7421875,186.7578125)"/>
<path d="M0 0 C19.47 0 38.94 0 59 0 C59 89.76 59 179.52 59 272 C39.53 272 20.06 272 0 272 C0 182.24 0 92.48 0 0 Z " fill="#E85823" transform="translate(98,120)"/>
<path d="M0 0 C165.66 0 331.32 0 502 0 C502 111.54 502 223.08 502 338 C336.34 338 170.68 338 0 338 C0 226.46 0 114.92 0 0 Z M4 4 C4 112.9 4 221.8 4 334 C167.02 334 330.04 334 498 334 C498 225.1 498 116.2 498 4 C334.98 4 171.96 4 4 4 Z " fill="#D6D3D0" transform="translate(5,87)"/>
<path d="M0 0 C4.28266193 0.48666613 6.68171848 1.27426875 10 4 C10.66 4 11.32 4 12 4 C12.66 2.68 13.32 1.36 14 0 C19.64497041 1.63076923 19.64497041 1.63076923 21.5625 3.625 C22.96712949 5.24094774 22.96712949 5.24094774 25.4375 5.3125 C28.0602702 4.99264998 29.74208944 4.33802108 32 3 C30.77472971 7.05281712 29.30119506 10.44360764 27 14 C27.99 15.485 27.99 15.485 29 17 C29.25760279 19.69452521 29.08900053 22.28548375 29 25 C27.35 24.01 25.7 23.02 24 22 C24 22.66 24 23.32 24 24 C24.639375 24.309375 25.27875 24.61875 25.9375 24.9375 C28 26 28 26 29 27 C29.07226502 28.85287502 29.0838122 30.70833878 29.0625 32.5625 C29.05347656 33.57441406 29.04445313 34.58632812 29.03515625 35.62890625 C29.02355469 36.41136719 29.01195312 37.19382813 29 38 C23.35157882 34.10886541 21.63941527 30.6008036 20 24 C19.34 24 18.68 24 18 24 C18 26.31 18 28.62 18 31 C16.68 30.67 15.36 30.34 14 30 C15.65 30.99 17.3 31.98 19 33 C19.66 31.68 20.32 30.36 21 29 C21.433125 29.928125 21.86625 30.85625 22.3125 31.8125 C23.7193912 34.89964245 23.7193912 34.89964245 25.53125 36.40625 C27.39602931 38.42973393 27.68195042 40.00419837 28.1875 42.6875 C28.34605469 43.49574219 28.50460937 44.30398437 28.66796875 45.13671875 C28.83232422 46.05904297 28.83232422 46.05904297 29 47 C28.01 47 27.02 47 26 47 C26.99 50.96 26.99 50.96 28 55 C23.64477147 54.49357808 20.55760365 53.61588503 17 51 C17 50.34 17 49.68 17 49 C16.34 49 15.68 49 15 49 C15.33 49.99 15.66 50.98 16 52 C18.13326836 53.03973184 18.13326836 53.03973184 21 54 C22.5043505 54.65679071 24.00403693 55.32432335 25.5 56 C28.64126921 57.40544265 31.78984956 58.75736112 35 60 C35 60.66 35 61.32 35 62 C32.04335481 63.4783226 29.25770263 63.06032783 26 63 C26 64.98 26 66.96 26 69 C22.53058454 68.54177532 19.32604951 68.10868317 16 67 C14.29749607 68.28725907 12.62935241 69.62131719 11 71 C10.34 71 9.68 71 9 71 C8.01 68.36 7.02 65.72 6 63 C5.38125 63.825 4.7625 64.65 4.125 65.5 C3.42375 66.325 2.7225 67.15 2 68 C1.34 68 0.68 68 0 68 C-0.33 67.34 -0.66 66.68 -1 66 C-1.66 66 -2.32 66 -3 66 C-3.66 66.99 -4.32 67.98 -5 69 C-5.99 69 -6.98 69 -8 69 C-8.33 68.34 -8.66 67.68 -9 67 C-9.598125 67.66 -10.19625 68.32 -10.8125 69 C-13 71 -13 71 -16 71 C-16.33 69.02 -16.66 67.04 -17 65 C-19.97 65.495 -19.97 65.495 -23 66 C-22.18903238 62.48055801 -20.9631246 59.24778906 -19.62109375 55.90234375 C-18.84481711 53.85821922 -18.84481711 53.85821922 -19 51 C-19.86625 51.2475 -19.86625 51.2475 -20.75 51.5 C-23 52 -23 52 -27 52 C-27.33 50.68 -27.66 49.36 -28 48 C-28.66 48 -29.32 48 -30 48 C-30.33 48.99 -30.66 49.98 -31 51 C-31.66 50.67 -32.32 50.34 -33 50 C-33 49.34 -33 48.68 -33 48 C-36.465 48.495 -36.465 48.495 -40 49 C-40 48.34 -40 47.68 -40 47 C-42.64 47 -45.28 47 -48 47 C-47.5020163 43.26512223 -47.12508244 41.18762365 -45 38 C-38.91766294 38.67581523 -32.98685848 39.73638028 -27 41 C-27.33 41.99 -27.66 42.98 -28 44 C-24.37 44.33 -20.74 44.66 -17 45 C-18.46562806 38.81179262 -22.08459594 33.90348952 -26 29 C-26.66 28.67 -27.32 28.34 -28 28 C-28 28.99 -28 29.98 -28 31 C-30 30 -32 29 -34 28 C-34.33 28.99 -34.66 29.98 -35 31 C-47.5518797 18.81729323 -47.5518797 18.81729323 -48.25 11.3125 C-48 9 -48 9 -46 7 C-43 6.75 -43 6.75 -40 7 C-38 9 -38 9 -38 13 C-31.4 11.68 -24.8 10.36 -18 9 C-17.34 6.69 -16.68 4.38 -16 2 C-7.77142857 1.52527473 -7.77142857 1.52527473 -4.5625 3.5 C-4.046875 3.995 -3.53125 4.49 -3 5 C-2.34 5 -1.68 5 -1 5 C-0.67 3.35 -0.34 1.7 0 0 Z " fill="#E7A804" transform="translate(312,183)"/>
<path d="M0 0 C0.66 0 1.32 0 2 0 C1.979375 0.94875 1.95875 1.8975 1.9375 2.875 C1.77448174 5.90666283 1.77448174 5.90666283 3 8 C2.9686568 9.58425639 2.90119249 11.16791772 2.8125 12.75 C2.75243653 16.57768117 2.77570312 17.67056396 5 20.9375 C7.63565256 24.97334298 7.28096181 27.90097177 7.04296875 32.609375 C6.81508717 35.01618692 6.81508717 35.01618692 8 37 C8.99 35.35 9.98 33.7 11 32 C15.45600616 32.41259316 19.28788952 33.04899589 23.5 34.5625 C32.80311297 37.49125779 43.1945689 36.65380257 52.56640625 34.45703125 C60.06424375 33.04893015 67.34842119 33.09581244 74 37 C76.34168764 40.51253146 76.49623677 41.86469356 76 46 C73.11525116 51.26780222 68.55972854 53.33413511 63 55 C58.06272639 55.58081385 53.15528983 55.6502602 48.1875 55.6875 C45.59759716 55.72958114 43.00774585 55.77500367 40.41796875 55.82421875 C38.71290161 55.84101685 38.71290161 55.84101685 36.97338867 55.8581543 C34.42279746 55.97983042 32.44607141 56.37758085 30 57 C27.86575059 57.14720772 25.72804504 57.24722602 23.58984375 57.31640625 C22.35298828 57.35830078 21.11613281 57.40019531 19.84179688 57.44335938 C17.90916992 57.50233398 17.90916992 57.50233398 15.9375 57.5625 C14.64521484 57.60568359 13.35292969 57.64886719 12.02148438 57.69335938 C-1.09861905 58.12453648 -1.09861905 58.12453648 -5.375 56.125 C-6.1690625 55.76019531 -6.963125 55.39539063 -7.78125 55.01953125 C-8.5134375 54.68308594 -9.245625 54.34664062 -10 54 C-12.65738352 52.90238507 -15.27207889 51.90930704 -18 51 C-17.34 51 -16.68 51 -16 51 C-16 50.01 -16 49.02 -16 48 C-15.34 48 -14.68 48 -14 48 C-14 48.66 -14 49.32 -14 50 C-10.6828589 51.4216319 -7.55780196 52.39009109 -4 53 C-4.99 50.03 -5.98 47.06 -7 44 C-5.35 44.66 -3.7 45.32 -2 46 C-4.21439255 39.7403205 -6.41224577 34.84262946 -11 30 C-11.33 30.66 -11.66 31.32 -12 32 C-14.475 31.01 -14.475 31.01 -17 30 C-17 29.01 -17 28.02 -17 27 C-15.515 27.99 -15.515 27.99 -14 29 C-13.67 27.02 -13.34 25.04 -13 23 C-12.34 23 -11.68 23 -11 23 C-10.67386719 23.68707031 -10.34773438 24.37414062 -10.01171875 25.08203125 C-9.35623047 26.43361328 -9.35623047 26.43361328 -8.6875 27.8125 C-8.25824219 28.70582031 -7.82898438 29.59914062 -7.38671875 30.51953125 C-6.11778211 32.78931933 -4.93443102 34.29248171 -3 36 C-2.89175157 34.3973218 -2.81429355 32.79254252 -2.75 31.1875 C-2.68039062 29.84751953 -2.68039062 29.84751953 -2.609375 28.48046875 C-2.74837646 25.83571214 -2.74837646 25.83571214 -5.015625 24.30078125 C-5.67046875 23.87152344 -6.3253125 23.44226563 -7 23 C-7 22.34 -7 21.68 -7 21 C-5.68 21.66 -4.36 22.32 -3 23 C-2.75571657 17.2025577 -2.75571657 17.2025577 -5 12 C-4.360625 11.2575 -3.72125 10.515 -3.0625 9.75 C-1.21666593 7.2888879 -0.43930826 5.96533074 0 3 C-0.66 2.67 -1.32 2.34 -2 2 C-1.34 1.34 -0.68 0.68 0 0 Z " fill="#821722" transform="translate(343,184)"/>
<path d="M0 0 C10.87382876 -0.42609047 10.87382876 -0.42609047 15.5625 2.71875 C17.15433387 4.24605006 18.71688551 5.80426882 20.25390625 7.38671875 C24.05401794 11.00304126 28.30923026 13.67425557 32.73583984 16.46069336 C42.16162265 22.48486796 42.16162265 22.48486796 44 28 C44.45127422 32.06146796 44.58835387 35.94876332 44 40 C40.5033615 43.4966385 36.65443349 44.55195403 32 46 C28.75150023 47.72226496 28.75150023 47.72226496 28 51 C28.99 51.495 28.99 51.495 30 52 C25.43593679 52.077357 21.47313676 51.94884719 17 51 C16.67 51.33 16.34 51.66 16 52 C11.46511628 52.23255814 11.46511628 52.23255814 9 51 C7.576875 51.2475 7.576875 51.2475 6.125 51.5 C3.11713796 51.98125793 1.83093797 51.75491679 -1 51 C-3.18703385 51.37907282 -3.18703385 51.37907282 -5 52 C-4.43067672 48.697925 -3.65494126 47.06871219 -1 45 C1.8828125 44.3046875 1.8828125 44.3046875 5.125 43.875 C8.87922063 43.65903667 8.87922063 43.65903667 12 42 C12.15456568 39.42291444 12.23172843 36.89107479 12.25 34.3125 C12.270625 33.60416016 12.29125 32.89582031 12.3125 32.16601562 C12.36479322 25.08682084 9.60505758 20.61675147 5.4375 15 C1.86331888 9.97804931 0 6.25286133 0 0 Z " fill="#F1B004" transform="translate(363,286)"/>
<path d="M0 0 C0.66 0.33 1.32 0.66 2 1 C1.70222656 1.80695313 1.40445313 2.61390625 1.09765625 3.4453125 C-3.95200823 19.79831846 -3.43624336 37.62313262 -3.62133789 54.57177734 C-3.75054213 64.54162455 -4.39663342 74.14889348 -6 84 C-5.67 83.34 -5.34 82.68 -5 82 C-2.625 81.875 -2.625 81.875 0 82 C0.66 82.66 1.32 83.32 2 84 C1.875 87.5 1.875 87.5 1 91 C-2.50918612 93.70005047 -6.70454007 93.33179335 -10.9375 93.3125 C-11.64068359 93.32861328 -12.34386719 93.34472656 -13.06835938 93.36132812 C-17.52047021 93.36550067 -20.56150243 92.91872468 -24 90 C-24.3125 86.3125 -24.3125 86.3125 -24 83 C-20.535 82.505 -20.535 82.505 -17 82 C-17 83.98 -17 85.96 -17 88 C-15.47129664 84.94259328 -16.50706205 82.35013685 -17 79 C-17.16211092 76.15133062 -17.18711599 73.30599086 -17.203125 70.453125 C-17.20882507 69.64244568 -17.21452515 68.83176636 -17.22039795 67.996521 C-17.22980533 66.28203617 -17.23636489 64.56753361 -17.24023438 62.85302734 C-17.2498169 60.29880628 -17.28082826 57.74543477 -17.3125 55.19140625 C-17.402872 41.11794362 -17.46421235 24.43089358 -10 12 C-9.38125 10.948125 -8.7625 9.89625 -8.125 8.8125 C-5.65136534 5.53857177 -2.96679875 2.83194426 0 0 Z " fill="#F3B204" transform="translate(253,169)"/>
<path d="M0 0 C1.26622284 3.58763137 0.68979547 5.83770981 -0.375 9.4375 C-1.6168944 13.9874001 -2.22708758 18.16499894 -2.4375 22.875 C-2.75075312 28.21308896 -3.37549605 31.05568687 -7 35 C-11.31376657 37.87584438 -14.94975489 37.31377263 -20 37 C-20.76828125 36.96648437 -21.5365625 36.93296875 -22.328125 36.8984375 C-24.4375 36.625 -24.4375 36.625 -28 35 C-30.48033595 30.61483089 -30.94332855 26.15231951 -31.1875 21.1875 C-29.72405669 17.25931005 -28.37099808 16.17890364 -24.78515625 14.16796875 C-21.22652256 12.67563849 -17.58910152 11.71536289 -13.875 10.6875 C-7.75813563 8.99253278 -4.05211953 7.15686458 -0.75 1.57421875 C-0.5025 1.05472656 -0.255 0.53523438 0 0 Z " fill="#F5B304" transform="translate(226,345)"/>
<path d="M0 0 C4.23088417 -0.22733109 6.71430783 -0.18292981 10.4296875 1.984375 C13.99198201 5.99195633 14.65343499 8.96601695 14.8671875 14.296875 C15.19933731 19.76504498 16.14850424 24.58625912 17.80859375 29.796875 C18.46394805 32.36883151 18.53823274 34.5915344 18.4296875 37.234375 C17.8728125 36.491875 17.3159375 35.749375 16.7421875 34.984375 C12.22812133 29.61629631 8.08374578 27.5092607 1.4921875 25.734375 C-3.84990661 24.28786959 -8.14936325 22.75226449 -12.5703125 19.234375 C-14.32207279 14.08213884 -13.469174 9.40458774 -11.765625 4.34765625 C-10.5703125 2.234375 -10.5703125 2.234375 -7.0078125 0.609375 C-4.67454579 0.31664043 -2.34224847 0.21357889 0 0 Z " fill="#F5B304" transform="translate(208.5703125,129.765625)"/>
<path d="M0 0 C4.94060868 0.0990953 8.87494132 0.18637777 13.4375 2.1875 C16.05899224 6.5390006 17.3450026 12.19623571 16.4375 17.1875 C12.53883965 22.83383567 6.65804403 24.13896743 0.4375 26.1875 C-5.72742586 28.33258029 -10.32826567 30.1064188 -14.5625 35.1875 C-14.28822171 31.84130488 -13.94929948 28.52223723 -13.5625 25.1875 C-13.47629395 24.44242188 -13.39008789 23.69734375 -13.30126953 22.9296875 C-12.99651789 20.40760495 -12.65770403 17.89184248 -12.3125 15.375 C-12.21541748 14.55088623 -12.11833496 13.72677246 -12.01831055 12.87768555 C-11.23311795 7.44441836 -9.98965807 4.77575392 -5.5625 1.1875 C-3.95136087 -0.42363913 -2.22211964 0.01696275 0 0 Z " fill="#F6B404" transform="translate(448.5625,129.8125)"/>
<path d="M0 0 C0.39944824 0.39687012 0.79889648 0.79374023 1.21044922 1.20263672 C5.8444946 5.5208142 10.07874945 7.43044553 16.125 9.125 C25.96958679 11.95390425 25.96958679 11.95390425 30 16 C31.66550057 21.20468928 30.90802327 25.80259082 29.1953125 30.88671875 C28 33 28 33 24.4375 34.625 C22.3203125 34.88671875 22.3203125 34.88671875 20 35 C19.15179688 35.08894531 18.30359375 35.17789063 17.4296875 35.26953125 C12.87618018 35.56177127 10.73755597 35.55316698 7 32.75 C3.73188691 28.25634451 2.76509068 25.34341342 2.5 19.75 C2.26085448 15.87149453 1.96131346 12.25159618 0.9375 8.5 C0.12046505 5.44973617 -0.19524567 3.1239307 0 0 Z " fill="#F6B404" transform="translate(434,347)"/>
<path d="M0 0 C7.27560996 3.4751737 14.79273925 7.7512871 20 14 C21.63912192 18.91736575 21.74344433 23.88085479 21 29 C18.08415606 31.91584394 15.80753936 32.73631368 11.9375 34 C8.64259288 35.12167051 6.59277617 36.71225632 4 39 C1.34862385 29.95412844 1.34862385 29.95412844 3 25 C4.44420305 22.81728403 5.98249773 20.77170955 7.625 18.734375 C9.06655505 17.03790226 9.06655505 17.03790226 10 15 C8.576875 15.061875 8.576875 15.061875 7.125 15.125 C4 15 4 15 2 13 C2.12890625 10.9765625 2.12890625 10.9765625 2.5625 8.625 C3.13004283 4.87605391 3.13004283 4.87605391 1.5625 1.4375 C1.046875 0.963125 0.53125 0.48875 0 0 Z " fill="#73171D" transform="translate(386,297)"/>
<path d="M0 0 C5.625 -0.25 5.625 -0.25 9 2 C9 2.66 9 3.32 9 4 C8.01 4.33 7.02 4.66 6 5 C7.98 5.66 9.96 6.32 12 7 C12 7.99 12 8.98 12 10 C9.03 9.505 9.03 9.505 6 9 C6.7734375 9.928125 6.7734375 9.928125 7.5625 10.875 C9.63526479 15.38101042 8.77258127 19.20627283 8 24 C9.32 24 10.64 24 12 24 C12.66 24 13.32 24 14 24 C13.67 25.65 13.34 27.3 13 29 C11.35 29.33 9.7 29.66 8 30 C8.66 31.32 9.32 32.64 10 34 C8.02 34.495 8.02 34.495 6 35 C5.87625 35.639375 5.7525 36.27875 5.625 36.9375 C5.41875 37.618125 5.2125 38.29875 5 39 C4.01 39.495 4.01 39.495 3 40 C2.67 38.35 2.34 36.7 2 35 C0.68 34.67 -0.64 34.34 -2 34 C-1.34 32.68 -0.68 31.36 0 30 C-1.65 29.67 -3.3 29.34 -5 29 C-5.33 27.68 -5.66 26.36 -6 25 C-5.01 25 -4.02 25 -3 25 C-2.01 24.67 -1.02 24.34 0 24 C-0.02320313 23.24074219 -0.04640625 22.48148437 -0.0703125 21.69921875 C-0.08835938 20.70535156 -0.10640625 19.71148437 -0.125 18.6875 C-0.14820313 17.70136719 -0.17140625 16.71523438 -0.1953125 15.69921875 C0 13 0 13 2 10 C-0.97 9.505 -0.97 9.505 -4 9 C-4 8.01 -4 7.02 -4 6 C-2.35 6 -0.7 6 1 6 C1.15811388 2.94729537 1.15811388 2.94729537 0 0 Z " fill="#F0AF04" transform="translate(237,278)"/>
<path d="M0 0 C0.66 0 1.32 0 2 0 C1.979375 0.94875 1.95875 1.8975 1.9375 2.875 C1.77448174 5.90666283 1.77448174 5.90666283 3 8 C2.9129796 9.71233688 2.75902838 11.42175406 2.5625 13.125 C2.46066406 14.03507813 2.35882813 14.94515625 2.25390625 15.8828125 C2.17011719 16.58148438 2.08632813 17.28015625 2 18 C1.67 18 1.34 18 1 18 C0.67 15.03 0.34 12.06 0 9 C-0.66 10.32 -1.32 11.64 -2 13 C-1.36846164 14.6802921 -0.69583526 16.34529897 0 18 C0.23046875 21.453125 0.23046875 21.453125 0.1875 25.25 C0.18177979 25.91241699 0.17605957 26.57483398 0.17016602 27.25732422 C0.11618323 30.91298497 -0.09865557 34.49968957 -0.5625 38.125 C-0.94419885 41.50576127 -0.93762044 43.7704185 0 47 C-1.485 47.495 -1.485 47.495 -3 48 C-2.67 48.763125 -2.34 49.52625 -2 50.3125 C-1 53 -1 53 -1 56 C3.03867161 55.88127168 7.07713142 55.75699341 11.11547852 55.62768555 C12.48782776 55.5845116 13.86022467 55.54282499 15.23266602 55.50268555 C17.21122068 55.44455608 19.1895997 55.3805429 21.16796875 55.31640625 C22.95110474 55.26141968 22.95110474 55.26141968 24.77026367 55.20532227 C27.62664631 55.02373501 30.20441209 54.56684604 33 54 C35.03563338 53.86788898 37.07420735 53.77735214 39.11328125 53.71875 C40.8622168 53.66267578 40.8622168 53.66267578 42.64648438 53.60546875 C43.85626953 53.57066406 45.06605469 53.53585938 46.3125 53.5 C53.60007655 53.28831139 60.78289845 53.07584122 68 52 C64.55992534 55.44007466 61.15458072 55.16122436 56.50390625 55.28125 C54.58288086 55.33732422 54.58288086 55.33732422 52.62304688 55.39453125 C51.26954458 55.43019709 49.91602863 55.46534811 48.5625 55.5 C45.91776188 55.567887 43.27341638 55.64163507 40.62890625 55.71875 C39.45400635 55.74904297 38.27910645 55.77933594 37.06860352 55.81054688 C34.50170826 55.96902493 32.46452224 56.37690238 30 57 C27.86575059 57.14720772 25.72804504 57.24722602 23.58984375 57.31640625 C22.35298828 57.35830078 21.11613281 57.40019531 19.84179688 57.44335938 C17.90916992 57.50233398 17.90916992 57.50233398 15.9375 57.5625 C14.64521484 57.60568359 13.35292969 57.64886719 12.02148438 57.69335938 C-1.09861905 58.12453648 -1.09861905 58.12453648 -5.375 56.125 C-6.1690625 55.76019531 -6.963125 55.39539063 -7.78125 55.01953125 C-8.5134375 54.68308594 -9.245625 54.34664062 -10 54 C-12.65738352 52.90238507 -15.27207889 51.90930704 -18 51 C-17.34 51 -16.68 51 -16 51 C-16 50.01 -16 49.02 -16 48 C-15.34 48 -14.68 48 -14 48 C-14 48.66 -14 49.32 -14 50 C-10.6828589 51.4216319 -7.55780196 52.39009109 -4 53 C-4.99 50.03 -5.98 47.06 -7 44 C-5.35 44.66 -3.7 45.32 -2 46 C-4.21439255 39.7403205 -6.41224577 34.84262946 -11 30 C-11.33 30.66 -11.66 31.32 -12 32 C-14.475 31.01 -14.475 31.01 -17 30 C-17 29.01 -17 28.02 -17 27 C-15.515 27.99 -15.515 27.99 -14 29 C-13.67 27.02 -13.34 25.04 -13 23 C-12.34 23 -11.68 23 -11 23 C-10.67386719 23.68707031 -10.34773438 24.37414062 -10.01171875 25.08203125 C-9.35623047 26.43361328 -9.35623047 26.43361328 -8.6875 27.8125 C-8.25824219 28.70582031 -7.82898438 29.59914062 -7.38671875 30.51953125 C-6.11778211 32.78931933 -4.93443102 34.29248171 -3 36 C-2.89175157 34.3973218 -2.81429355 32.79254252 -2.75 31.1875 C-2.68039062 29.84751953 -2.68039062 29.84751953 -2.609375 28.48046875 C-2.74837646 25.83571214 -2.74837646 25.83571214 -5.015625 24.30078125 C-5.67046875 23.87152344 -6.3253125 23.44226563 -7 23 C-7 22.34 -7 21.68 -7 21 C-5.68 21.66 -4.36 22.32 -3 23 C-2.75571657 17.2025577 -2.75571657 17.2025577 -5 12 C-4.360625 11.2575 -3.72125 10.515 -3.0625 9.75 C-1.21666593 7.2888879 -0.43930826 5.96533074 0 3 C-0.66 2.67 -1.32 2.34 -2 2 C-1.34 1.34 -0.68 0.68 0 0 Z " fill="#331B05" transform="translate(343,184)"/>
<path d="M0 0 C0.81984375 0.08378906 1.6396875 0.16757812 2.484375 0.25390625 C3.56203125 0.35574219 4.6396875 0.45757812 5.75 0.5625 C6.81734375 0.66691406 7.8846875 0.77132813 8.984375 0.87890625 C12.19864029 1.14956962 12.19864029 1.14956962 16 0 C16 5.28 16 10.56 16 16 C14.35 16.66 12.7 17.32 11 18 C9.0625 16.6875 9.0625 16.6875 7 15 C3.84881675 14.27954633 3.84881675 14.27954633 1 14 C0.67 14.66 0.34 15.32 0 16 C-0.39180108 14.42074025 -0.76280736 12.83631206 -1.125 11.25 C-1.33382812 10.36828125 -1.54265625 9.4865625 -1.7578125 8.578125 C-2.03422935 5.63562307 -1.4670035 4.4993393 0 2 C0 1.34 0 0.68 0 0 Z " fill="#513B01" transform="translate(236,264)"/>
<path d="M0 0 C3 1.5 3 1.5 6 3 C6 2.01 6 1.02 6 0 C9.48872415 1.16290805 10.09976864 2.13967609 12.1875 5.0625 C12.71730469 5.79597656 13.24710937 6.52945313 13.79296875 7.28515625 C14.19128906 7.85105469 14.58960938 8.41695312 15 9 C14.67 9.66 14.34 10.32 14 11 C4.41562198 9.82225863 -4.09787043 6.55191619 -13 3 C-12.67 4.32 -12.34 5.64 -12 7 C-12.66 6.67 -13.32 6.34 -14 6 C-14 4.68 -14 3.36 -14 2 C-9.08869497 1.6491925 -6.28720178 2.6615263 -2 5 C-1.34 5 -0.68 5 0 5 C-1.32 4.34 -2.64 3.68 -4 3 C-4 2.34 -4 1.68 -4 1 C-3.01 1.33 -2.02 1.66 -1 2 C-0.67 1.34 -0.34 0.68 0 0 Z " fill="#541812" transform="translate(278,211)"/>
<path d="M0 0 C4.15924316 0.68929077 7.87575782 2.00690264 11.8125 3.5 C15.82460315 4.97349014 19.48335747 6.26487971 23.75 6.625 C24.8225 6.74875 25.895 6.8725 27 7 C29 10 29 10 29 13 C26.36 12.67 23.72 12.34 21 12 C21 10.68 21 9.36 21 8 C19.700625 8.061875 18.40125 8.12375 17.0625 8.1875 C11.45804956 8.1875 5.63477563 7.21906659 1.2421875 3.51953125 C0 2 0 2 0 0 Z " fill="#ECAC04" transform="translate(265,214)"/>
<path d="M0 0 C2.21354167 0.52083333 4.42708333 1.04166667 6.640625 1.5625 C9.25556002 2.12154828 9.25556002 2.12154828 13 2 C13 2.66 13 3.32 13 4 C13.66 4.33 14.32 4.66 15 5 C15 5.66 15 6.32 15 7 C15.99 7 16.98 7 18 7 C18 7.99 18 8.98 18 10 C15.75 11.1875 15.75 11.1875 13 12 C11.0625 10.6875 11.0625 10.6875 9 9 C5.84881675 8.27954633 5.84881675 8.27954633 3 8 C2.67 8.66 2.34 9.32 2 10 C1.34 6.7 0.68 3.4 0 0 Z " fill="#392702" transform="translate(234,270)"/>
<path d="M0 0 C0.68964844 0.20496094 1.37929688 0.40992188 2.08984375 0.62109375 C8.0949719 2.34272857 13.77409051 3.48967955 20 4 C20 5.32 20 6.64 20 8 C21.423125 7.9690625 21.423125 7.9690625 22.875 7.9375 C26 8 26 8 28 9 C27.67 7.35 27.34 5.7 27 4 C27.66 4.33 28.32 4.66 29 5 C29 6.65 29 8.3 29 10 C23.555 9.505 23.555 9.505 18 9 C18 8.34 18 7.68 18 7 C15.91798472 6.49453964 13.83432933 5.99583165 11.75 5.5 C10.58984375 5.2215625 9.4296875 4.943125 8.234375 4.65625 C4.89669288 3.86743548 4.89669288 3.86743548 1 4 C0.01 6.64 -0.98 9.28 -2 12 C2.455 11.505 2.455 11.505 7 11 C6.67 11.99 6.34 12.98 6 14 C9.465 13.505 9.465 13.505 13 13 C12.67 13.66 12.34 14.32 12 15 C9.35139573 15.59355614 6.70802678 15.74209269 4 16 C4.33 14.68 4.66 13.36 5 12 C4.01 12.495 4.01 12.495 3 13 C1.00039988 13.039992 -1.00047242 13.04346799 -3 13 C-2.51424554 8.2234145 -1.91138899 4.43659802 0 0 Z " fill="#442B04" transform="translate(266,218)"/>
<path d="M0 0 C-0.62648438 0.20496094 -1.25296875 0.40992188 -1.8984375 0.62109375 C-2.71570313 0.89050781 -3.53296875 1.15992188 -4.375 1.4375 C-5.18710937 1.70433594 -5.99921875 1.97117188 -6.8359375 2.24609375 C-9.01031799 2.95179729 -9.01031799 2.95179729 -11 4 C-10.01 5.485 -10.01 5.485 -9 7 C-10 8 -10 8 -12.50390625 8.09765625 C-14.01791016 8.08025391 -14.01791016 8.08025391 -15.5625 8.0625 C-16.57441406 8.05347656 -17.58632813 8.04445312 -18.62890625 8.03515625 C-19.80259766 8.01775391 -19.80259766 8.01775391 -21 8 C-21 8.66 -21 9.32 -21 10 C-26.51516412 9.52455482 -30.03365611 8.53835354 -35 6 C-37.75146274 5.74715633 -37.75146274 5.74715633 -40 6 C-40 6.99 -40 7.98 -40 9 C-39.01 9.66 -38.02 10.32 -37 11 C-38.65 10.67 -40.3 10.34 -42 10 C-42.125 7.625 -42.125 7.625 -42 5 C-41.34 4.34 -40.68 3.68 -40 3 C-34.30895729 3.28455214 -29.17763313 5.80001754 -24 8 C-24 7.01 -24 6.02 -24 5 C-18.06 5.99 -18.06 5.99 -12 7 C-12.33 5.68 -12.66 4.36 -13 3 C-13.66 2.67 -14.32 2.34 -15 2 C-13.19922304 0.19922304 -10.49752892 0.28614638 -8.0625 -0.125 C-6.44021484 -0.40730469 -6.44021484 -0.40730469 -4.78515625 -0.6953125 C-2 -1 -2 -1 0 0 Z " fill="#533D01" transform="translate(336,194)"/>
<path d="M0 0 C2.24606427 1.77444972 2.95081002 2.58352485 3.29296875 5.48046875 C3.25816406 6.37378906 3.22335938 7.26710938 3.1875 8.1875 C3.16042969 9.08855469 3.13335937 9.98960937 3.10546875 10.91796875 C3.07066406 11.60503906 3.03585938 12.29210937 3 13 C2.67 13 2.34 13 2 13 C1.67 10.03 1.34 7.06 1 4 C1 4.33 1 4.66 1 5 C0.67619874 6.33568021 0.34342449 7.66923011 0 9 C-0.639375 9.12375 -1.27875 9.2475 -1.9375 9.375 C-2.618125 9.58125 -3.29875 9.7875 -4 10 C-4.33 10.66 -4.66 11.32 -5 12 C-5.66 10.35 -6.32 8.7 -7 7 C-4.03 7.495 -4.03 7.495 -1 8 C-1 7.01 -1 6.02 -1 5 C-1.763125 5.061875 -2.52625 5.12375 -3.3125 5.1875 C-6 5 -6 5 -7.8125 3.5 C-8.204375 3.005 -8.59625 2.51 -9 2 C-6.94921875 1.77213542 -4.8984375 1.54427083 -2.84765625 1.31640625 C-0.98859771 1.18113386 -0.98859771 1.18113386 0 0 Z " fill="#2E0F08" transform="translate(250,280)"/>
<path d="M0 0 C0.65871094 0.32613281 1.31742188 0.65226562 1.99609375 0.98828125 C5.72644807 2.24466846 9.17743684 2.25515921 13.0625 2.1875 C13.76955078 2.18685547 14.47660156 2.18621094 15.20507812 2.18554688 C18.60199467 2.15684054 21.75326429 2.05413497 25 1 C24.67 1.99 24.34 2.98 24 4 C20.5625 5.125 20.5625 5.125 17 6 C16.01 6.495 16.01 6.495 15 7 C13.0546875 6.66015625 13.0546875 6.66015625 10.875 6.0625 C10.15054688 5.86785156 9.42609375 5.67320312 8.6796875 5.47265625 C8.12539062 5.31667969 7.57109375 5.16070312 7 5 C7.33 5.99 7.66 6.98 8 8 C7.01 8 6.02 8 5 8 C5.33 6.68 5.66 5.36 6 4 C4.02 3.34 2.04 2.68 0 2 C0 1.34 0 0.68 0 0 Z " fill="#442D03" transform="translate(229,259)"/>
<path d="M0 0 C0.33 0.66 0.66 1.32 1 2 C2.65 1.67 4.3 1.34 6 1 C6.66 2.98 7.32 4.96 8 7 C8.433125 6.566875 8.86625 6.13375 9.3125 5.6875 C10.875 4.125 12.4375 2.5625 14 1 C14.66 2.32 15.32 3.64 16 5 C16.66 4.67 17.32 4.34 18 4 C17.67 4.99 17.34 5.98 17 7 C16.01 7 15.02 7 14 7 C13.67 6.34 13.34 5.68 13 5 C12.401875 5.66 11.80375 6.32 11.1875 7 C9 9 9 9 6 9 C5.67 7.02 5.34 5.04 5 3 C3.02 3.33 1.04 3.66 -1 4 C-0.67 2.68 -0.34 1.36 0 0 Z " fill="#4A3601" transform="translate(290,245)"/>
<path d="M0 0 C0.96661363 3.12180401 0.98988909 5.52083795 0.5625 8.75 C0.40974609 9.94882813 0.40974609 9.94882813 0.25390625 11.171875 C0.12822266 12.07679688 0.12822266 12.07679688 0 13 C0.928125 11.7625 0.928125 11.7625 1.875 10.5 C2.57625 9.675 3.2775 8.85 4 8 C4.66 8 5.32 8 6 8 C4.64199529 10.96530497 3.07571737 13.29131271 0.9375 15.75 C0.14666016 16.67039063 0.14666016 16.67039063 -0.66015625 17.609375 C-1.10230469 18.06828125 -1.54445313 18.5271875 -2 19 C-2.33 19 -2.66 19 -3 19 C-3.45510807 12.32508169 -1.7672426 6.40625443 0 0 Z " fill="#55240D" transform="translate(435,151)"/>
<path d="M0 0 C0.66 0 1.32 0 2 0 C2.32613281 0.67546875 2.65226562 1.3509375 2.98828125 2.046875 C3.64376953 3.38492188 3.64376953 3.38492188 4.3125 4.75 C4.74175781 5.63171875 5.17101562 6.5134375 5.61328125 7.421875 C6.90103146 9.81600215 8.30915754 11.87776958 10 14 C6.2047869 12.50902342 4.38957269 10.24299151 2 7 C1.67 7.66 1.34 8.32 1 9 C-1.475 8.01 -1.475 8.01 -4 7 C-4 6.01 -4 5.02 -4 4 C-2.515 4.99 -2.515 4.99 -1 6 C-0.67 4.02 -0.34 2.04 0 0 Z " fill="#513B01" transform="translate(330,207)"/>
<path d="M0 0 C1.258125 0.12375 2.51625 0.2475 3.8125 0.375 C4.87404297 0.47941406 4.87404297 0.47941406 5.95703125 0.5859375 C8 1 8 1 11 3 C11 3.66 11 4.32 11 5 C7.7 4.67 4.4 4.34 1 4 C0.67 2.68 0.34 1.36 0 0 Z " fill="#ECAC04" transform="translate(235,268)"/>
<path d="M0 0 C0.33 0 0.66 0 1 0 C1.33 6.6 1.66 13.2 2 20 C1.01 20 0.02 20 -1 20 C-1.02696009 17.2291017 -1.04681952 14.4584655 -1.0625 11.6875 C-1.07087891 10.90181641 -1.07925781 10.11613281 -1.08789062 9.30664062 C-1.09111328 8.54931641 -1.09433594 7.79199219 -1.09765625 7.01171875 C-1.10289307 6.31522217 -1.10812988 5.61872559 -1.11352539 4.90112305 C-1 3 -1 3 0 0 Z " fill="#604402" transform="translate(293,283)"/>
<path d="M0 0 C1.08394917 3.25184752 0.86470733 3.870583 0 7 C-0.48633772 13.01701548 0.32071675 18.22746383 2 24 C-0.61527381 21.63379989 -2.26440562 19.057952 -4 16 C-3.34 16 -2.68 16 -2 16 C-2.02320313 15.34773438 -2.04640625 14.69546875 -2.0703125 14.0234375 C-2.17583753 8.91301097 -2.01926302 4.79574967 0 0 Z " fill="#361907" transform="translate(270,260)"/>
<path d="M0 0 C0.33 0 0.66 0 1 0 C1.08333357 4.8333472 0.95261487 9.23692563 0 14 C-0.33 14 -0.66 14 -1 14 C-1.268125 12.88625 -1.53625 11.7725 -1.8125 10.625 C-2.65809019 6.78159049 -2.65809019 6.78159049 -6 5 C-6 4.34 -6 3.68 -6 3 C-4.02 3.99 -4.02 3.99 -2 5 C-1.34 3.35 -0.68 1.7 0 0 Z " fill="#634105" transform="translate(342,202)"/>
<path d="M0 0 C5.625 -0.25 5.625 -0.25 9 2 C9 2.66 9 3.32 9 4 C6.69 4.33 4.38 4.66 2 5 C1.34 3.35 0.68 1.7 0 0 Z " fill="#E4A604" transform="translate(237,278)"/>
<path d="M0 0 C1.65 0.33 3.3 0.66 5 1 C5.33 2.32 5.66 3.64 6 5 C5.195625 5.28875 4.39125 5.5775 3.5625 5.875 C0.8673532 6.73262568 0.8673532 6.73262568 0 9 C-0.66 7.35 -1.32 5.7 -2 4 C0.97 4.495 0.97 4.495 4 5 C4 4.01 4 3.02 4 2 C2.35 2 0.7 2 -1 2 C-0.67 1.34 -0.34 0.68 0 0 Z " fill="#401F08" transform="translate(245,283)"/>
<path d="M0 0 C2.97 0.33 5.94 0.66 9 1 C9.33 1.99 9.66 2.98 10 4 C7.03 3.67 4.06 3.34 1 3 C0.67 2.01 0.34 1.02 0 0 Z " fill="#EEAE04" transform="translate(236,273)"/>
<path d="M0 0 C3 1 3 1 4.1875 3.0625 C4.455625 3.701875 4.72375 4.34125 5 5 C3.02 5.33 1.04 5.66 -1 6 C-1.33 7.32 -1.66 8.64 -2 10 C-2.99 10 -3.98 10 -5 10 C-3.19587357 6.73539027 -2.16605307 5.11070205 1 3 C0.67 2.01 0.34 1.02 0 0 Z " fill="#3A2005" transform="translate(245,308)"/>
<path d="M0 0 C1.4606285 2.64738916 2 3.89448334 2 7 C0.35 7.66 -1.3 8.32 -3 9 C-3 5.19934174 -2.73469028 2.73469028 0 0 Z " fill="#956D03" transform="translate(250,269)"/>
<path d="M0 0 C7.75 0.875 7.75 0.875 10 2 C10 2.66 10 3.32 10 4 C2.25 3.125 2.25 3.125 0 2 C0 1.34 0 0.68 0 0 Z " fill="#EDAD04" transform="translate(236,264)"/>
<path d="M0 0 C1.485 0.99 1.485 0.99 3 2 C3.33 1.34 3.66 0.68 4 0 C6.4375 0.375 6.4375 0.375 9 1 C9.33 1.66 9.66 2.32 10 3 C9.030625 3.12375 8.06125 3.2475 7.0625 3.375 C6.051875 3.58125 5.04125 3.7875 4 4 C3.67 4.66 3.34 5.32 3 6 C0 2.25 0 2.25 0 0 Z " fill="#5F4501" transform="translate(309,235)"/>
<path d="M0 0 C1.65 0 3.3 0 5 0 C4.67 1.65 4.34 3.3 4 5 C2.35 4.67 0.7 4.34 -1 4 C-0.67 2.68 -0.34 1.36 0 0 Z " fill="#BD8A03" transform="translate(296,199)"/>
<path d="M0 0 C0.66 0.33 1.32 0.66 2 1 C2 1.99 2 2.98 2 4 C0.35 4.66 -1.3 5.32 -3 6 C-3.66 5.01 -4.32 4.02 -5 3 C-2.625 1.4375 -2.625 1.4375 0 0 Z " fill="#604601" transform="translate(250,276)"/>
<path d="M0 0 C3.43595166 1.52708963 6.11912454 3.59927045 9 6 C7.02 6.66 5.04 7.32 3 8 C2.814375 6.8553125 2.814375 6.8553125 2.625 5.6875 C2.11897208 2.79732864 2.11897208 2.79732864 0 0 Z " fill="#442706" transform="translate(386,297)"/>
<path d="M0 0 C3.875 1.75 3.875 1.75 5 4 C4.34 4 3.68 4 3 4 C3 5.65 3 7.3 3 9 C2.01 9 1.02 9 0 9 C-0.33 8.34 -0.66 7.68 -1 7 C-0.01 7 0.98 7 2 7 C1.34 4.69 0.68 2.38 0 0 Z " fill="#3E2D01" transform="translate(320,231)"/>
<path d="M0 0 C1.32 0.66 2.64 1.32 4 2 C3.01 2.495 3.01 2.495 2 3 C2 3.66 2 4.32 2 5 C0.02 4.34 -1.96 3.68 -4 3 C-4 2.34 -4 1.68 -4 1 C-3.01 1.33 -2.02 1.66 -1 2 C-0.67 1.34 -0.34 0.68 0 0 Z " fill="#442308" transform="translate(278,211)"/>
<path d="M0 0 C2.9375 0.375 2.9375 0.375 6 1 C6.33 1.66 6.66 2.32 7 3 C5.35 2.67 3.7 2.34 2 2 C1.67 3.65 1.34 5.3 1 7 C0.67 7 0.34 7 0 7 C0 4.69 0 2.38 0 0 Z " fill="#3A150A" transform="translate(364,186)"/>
<path d="M0 0 C0.66 0 1.32 0 2 0 C1.34 3.96 0.68 7.92 0 12 C-0.33 12 -0.66 12 -1 12 C-1.22162329 10.37675914 -1.42689803 8.751279 -1.625 7.125 C-1.74101562 6.22007812 -1.85703125 5.31515625 -1.9765625 4.3828125 C-1.98429687 3.59648437 -1.99203125 2.81015625 -2 2 C-1.34 1.34 -0.68 0.68 0 0 Z " fill="#38100C" transform="translate(312,324)"/>
<path d="M0 0 C0.66 0 1.32 0 2 0 C2 0.99 2 1.98 2 3 C2.99 3 3.98 3 5 3 C4.1875 4.9375 4.1875 4.9375 3 7 C2.01 7.33 1.02 7.66 0 8 C0 5.36 0 2.72 0 0 Z " fill="#631718" transform="translate(344,183)"/>
<path d="M0 0 C1.98 0.66 3.96 1.32 6 2 C6.33 3.65 6.66 5.3 7 7 C6.34 6.67 5.68 6.34 5 6 C5 5.01 5 4.02 5 3 C3.35 3 1.7 3 0 3 C0 2.01 0 1.02 0 0 Z " fill="#3B1F06" transform="translate(233,311)"/>
</svg>
